<svg width="18" height="18" viewBox="0 0 18 18" fill="none" xmlns="http://www.w3.org/2000/svg">
<path d="M7.16675 11.75L7.16675 9" stroke="#A3AED0" stroke-width="1.5" stroke-linecap="round"/>
<path d="M10.8333 11.75L10.8333 9" stroke="#A3AED0" stroke-width="1.5" stroke-linecap="round"/>
<path d="M0.75 4.41675H17.25V4.41675C16.5522 4.41675 16.2033 4.41675 15.9194 4.50287C15.2802 4.69677 14.78 5.19698 14.5861 5.83618C14.5 6.12008 14.5 6.46897 14.5 7.16675V12.3334C14.5 14.219 14.5 15.1618 13.9142 15.7476C13.3284 16.3334 12.3856 16.3334 10.5 16.3334H7.5C5.61438 16.3334 4.67157 16.3334 4.08579 15.7476C3.5 15.1618 3.5 14.219 3.5 12.3334V7.16675C3.5 6.46897 3.5 6.12008 3.41388 5.83618C3.21998 5.19698 2.71977 4.69677 2.08057 4.50287C1.79667 4.41675 1.44778 4.41675 0.75 4.41675V4.41675Z" stroke="#A3AED0" stroke-width="1.5" stroke-linecap="round"/>
<path d="M7.22905 1.08971C7.33351 0.992251 7.56367 0.906134 7.88386 0.844713C8.20404 0.783292 8.59634 0.75 8.99992 0.75C9.4035 0.75 9.7958 0.783292 10.116 0.844713C10.4362 0.906134 10.6663 0.992251 10.7708 1.08971" stroke="#A3AED0" stroke-width="1.5" stroke-linecap="round"/>
</svg>
