<?xml version="1.0" encoding="utf-8"?>
<!-- Generator: Adobe Illustrator 24.0.2, SVG Export Plug-In . SVG Version: 6.00 Build 0)  -->
<svg version="1.1" id="Layer_1" xmlns="http://www.w3.org/2000/svg" xmlns:xlink="http://www.w3.org/1999/xlink" x="0px" y="0px"
	 viewBox="0 0 149.73 117.01" style="enable-background:new 0 0 149.73 117.01;" xml:space="preserve">
<style type="text/css">
	.st0{fill:#1F2333;}
	.st1{fill:#FFFFFF;}
</style>
<g>
	<path class="st0" d="M38.75,21.87c4.39,0,7.51,0.87,9.37,2.62c1.85,1.75,2.78,4.39,2.78,7.93v3.07c0,3.58-1.36,6.29-4.09,8.12
		c2.94,1.71,4.41,4.46,4.41,8.25v3.71c0,1.7-0.19,3.24-0.58,4.6c-0.38,1.36-1.01,2.53-1.89,3.49c-0.88,0.96-2.04,1.69-3.49,2.21
		c-1.45,0.51-3.24,0.77-5.37,0.77H1.92C0.64,66.63,0,65.99,0,64.71V23.79c0-1.28,0.64-1.92,1.92-1.92H38.75z M9.78,40.48H36
		c2.13,0,3.58-0.32,4.35-0.96c0.77-0.64,1.15-1.58,1.15-2.81v-2.17c0-1.32-0.37-2.29-1.12-2.91c-0.75-0.62-1.95-0.93-3.61-0.93
		H10.61c-0.55,0-0.83,0.28-0.83,0.83V40.48z M9.78,47.45v9.53c0,0.55,0.28,0.83,0.83,0.83h26.22c1.7,0,2.92-0.31,3.65-0.93
		c0.72-0.62,1.09-1.61,1.09-2.97v-2.43c0-1.32-0.39-2.32-1.18-3.01c-0.79-0.68-2.25-1.02-4.38-1.02H9.78z"/>
	<path class="st0" d="M97.41,21.87c0.98,0,1.47,0.47,1.47,1.41v6.27c0,0.98-0.49,1.47-1.47,1.47H81.67v34.21
		c0,0.94-0.47,1.41-1.41,1.41h-6.97c-0.94,0-1.41-0.47-1.41-1.41V31.02H56.14c-0.98,0-1.47-0.49-1.47-1.47v-6.27
		c0-0.94,0.49-1.41,1.47-1.41H97.41z"/>
	<path class="st0" d="M148.32,21.87c0.94,0,1.41,0.47,1.41,1.41v6.27c0,0.98-0.47,1.47-1.41,1.47h-28.45
		c-1.66,0-3.04,0.14-4.12,0.42c-1.09,0.28-1.95,0.75-2.59,1.41c-0.64,0.66-1.1,1.55-1.37,2.65c-0.28,1.11-0.42,2.52-0.42,4.22v9.08
		c0,1.7,0.14,3.12,0.42,4.25c0.28,1.13,0.74,2.03,1.37,2.69c0.64,0.66,1.5,1.13,2.59,1.41c1.09,0.28,2.46,0.42,4.12,0.42h28.45
		c0.94,0,1.41,0.47,1.41,1.41v6.27c0,0.94-0.47,1.41-1.41,1.41h-28.84c-3.24,0-5.99-0.3-8.25-0.9c-2.26-0.6-4.1-1.57-5.53-2.91
		c-1.43-1.34-2.47-3.09-3.13-5.24c-0.66-2.15-0.99-4.76-0.99-7.83v-11c0-3.07,0.33-5.67,0.99-7.8c0.66-2.13,1.7-3.87,3.13-5.21
		c1.43-1.34,3.27-2.32,5.53-2.94c2.26-0.62,5.01-0.93,8.25-0.93H148.32z"/>
</g>
<path class="st0" d="M147.74,99.45H1.98C0.89,99.45,0,98.56,0,97.47V73.86c0-1.09,0.89-1.98,1.98-1.98h145.76
	c1.09,0,1.98,0.89,1.98,1.98v23.61C149.73,98.56,148.84,99.45,147.74,99.45z"/>
<g>
	<path class="st1" d="M19.77,75.6c2.14,0,3.68,0.48,4.61,1.45c0.93,0.97,1.4,2.4,1.4,4.3v1.59c0,1.6-0.33,2.87-0.98,3.8
		c-0.65,0.93-1.71,1.53-3.18,1.79l4.77,5.92c0.09,0.09,0.12,0.23,0.08,0.42c-0.04,0.19-0.19,0.28-0.45,0.28h-3.6
		c-0.24,0-0.41-0.03-0.5-0.08c-0.09-0.06-0.19-0.15-0.28-0.28l-4.41-5.81H8.21v5.56c0,0.41-0.21,0.61-0.61,0.61H4.58
		c-0.43,0-0.64-0.2-0.64-0.61V76.44c0-0.56,0.28-0.84,0.84-0.84H19.77z M8.21,85.57H18.9c0.95,0,1.62-0.2,2.01-0.61
		s0.59-1.03,0.59-1.87v-1.17c0-0.84-0.19-1.46-0.59-1.87c-0.39-0.41-1.06-0.61-2.01-0.61H8.57c-0.24,0-0.36,0.11-0.36,0.34V85.57z"
		/>
	<path class="st1" d="M41.63,79.82c1.25,0,2.3,0.11,3.15,0.32c0.86,0.21,1.54,0.55,2.05,1c0.51,0.46,0.88,1.04,1.1,1.76
		c0.22,0.72,0.34,1.58,0.34,2.58v4.02c0,1.01-0.11,1.87-0.34,2.58c-0.22,0.72-0.59,1.3-1.1,1.76c-0.51,0.46-1.2,0.79-2.05,0.99
		s-1.91,0.31-3.15,0.31h-7.9c-1.27,0-2.32-0.1-3.17-0.31c-0.85-0.2-1.53-0.53-2.04-0.99c-0.51-0.46-0.88-1.04-1.1-1.76
		c-0.22-0.72-0.33-1.58-0.33-2.58v-4.02c0-1,0.11-1.87,0.33-2.58c0.22-0.72,0.59-1.3,1.1-1.76c0.51-0.46,1.19-0.79,2.04-1
		c0.85-0.21,1.9-0.32,3.17-0.32H41.63z M31.08,88.81c0,0.6,0.05,1.09,0.14,1.48c0.09,0.39,0.26,0.7,0.49,0.94
		c0.23,0.23,0.55,0.4,0.94,0.5c0.39,0.1,0.88,0.15,1.48,0.15h7.12c0.61,0,1.12-0.05,1.51-0.15c0.39-0.1,0.7-0.27,0.93-0.5
		c0.23-0.23,0.4-0.54,0.49-0.94c0.09-0.39,0.14-0.88,0.14-1.48v-2.65c0-0.58-0.05-1.06-0.14-1.45c-0.09-0.39-0.26-0.71-0.49-0.95
		c-0.23-0.24-0.54-0.41-0.93-0.5c-0.39-0.09-0.89-0.14-1.51-0.14h-7.12c-0.6,0-1.09,0.05-1.48,0.14c-0.39,0.09-0.7,0.26-0.94,0.5
		c-0.23,0.24-0.4,0.56-0.49,0.95c-0.09,0.39-0.14,0.87-0.14,1.45V88.81z"/>
	<path class="st1" d="M53.04,79.82c0.41,0,0.61,0.21,0.61,0.64v8.07c0,0.6,0.04,1.09,0.11,1.48c0.07,0.39,0.21,0.7,0.42,0.94
		c0.2,0.23,0.49,0.4,0.87,0.5c0.37,0.1,0.87,0.15,1.48,0.15h7.17c0.61,0,1.12-0.05,1.51-0.15c0.39-0.1,0.7-0.27,0.93-0.5
		c0.23-0.23,0.39-0.54,0.49-0.94c0.09-0.39,0.14-0.88,0.14-1.48v-8.07c0-0.43,0.2-0.64,0.61-0.64h2.74c0.41,0,0.61,0.21,0.61,0.64
		v9.04c0,1.01-0.11,1.87-0.33,2.58c-0.22,0.72-0.59,1.3-1.1,1.76c-0.51,0.46-1.2,0.79-2.05,0.99c-0.86,0.2-1.91,0.31-3.15,0.31H56.3
		c-1.27,0-2.32-0.1-3.17-0.31s-1.53-0.53-2.04-0.99c-0.51-0.46-0.88-1.04-1.1-1.76s-0.34-1.58-0.34-2.58v-9.04
		c0-0.43,0.21-0.64,0.64-0.64H53.04z"/>
	<path class="st1" d="M76.66,74.21c0.41,0,0.61,0.2,0.61,0.61v19.71c0,0.41-0.2,0.61-0.61,0.61h-2.74c-0.41,0-0.61-0.2-0.61-0.61
		V74.82c0-0.41,0.2-0.61,0.61-0.61H76.66z"/>
	<path class="st1" d="M94.12,79.82c0.95,0,1.73,0.08,2.36,0.24c0.62,0.16,1.12,0.42,1.48,0.78c0.36,0.36,0.62,0.84,0.77,1.42
		c0.15,0.59,0.22,1.3,0.22,2.14v2.65c0,0.6-0.13,1.01-0.39,1.24c-0.26,0.23-0.66,0.35-1.2,0.35h-14.1v0.67
		c0,0.87,0.21,1.51,0.63,1.9c0.42,0.39,1.23,0.59,2.44,0.59h11.64c0.33,0,0.5,0.17,0.5,0.5v2.35c0,0.33-0.17,0.5-0.5,0.5H85.94
		c-1.27,0-2.32-0.1-3.17-0.31c-0.85-0.2-1.53-0.53-2.04-0.99c-0.51-0.46-0.88-1.04-1.1-1.76c-0.22-0.72-0.33-1.58-0.33-2.58v-4.02
		c0-1,0.11-1.87,0.33-2.58c0.22-0.72,0.59-1.3,1.1-1.76c0.51-0.46,1.19-0.79,2.04-1c0.85-0.21,1.9-0.32,3.17-0.32H94.12z
		 M83.26,86.16h11.31c0.32,0,0.47-0.16,0.47-0.47v-1.17c0-0.58-0.12-0.99-0.36-1.23c-0.24-0.24-0.69-0.36-1.34-0.36h-7.01
		c-1.21,0-2.02,0.19-2.44,0.57c-0.42,0.38-0.63,1.02-0.63,1.91V86.16z"/>
	<path class="st1" d="M102.89,79.82v-3.68c0-0.41,0.2-0.61,0.61-0.61h2.76c0.41,0,0.61,0.2,0.61,0.61v3.68h4.89
		c0.34,0,0.5,0.17,0.5,0.5v2.29c0,0.34-0.17,0.5-0.5,0.5h-4.89v6.48c0,0.78,0.16,1.35,0.47,1.72c0.32,0.36,0.94,0.54,1.87,0.54h2.71
		c0.34,0,0.5,0.17,0.5,0.5v2.29c0,0.33-0.17,0.5-0.5,0.5h-3.38c-1.12,0-2.04-0.1-2.76-0.31c-0.73-0.2-1.31-0.53-1.74-0.98
		c-0.44-0.45-0.74-1.02-0.91-1.73c-0.17-0.71-0.25-1.55-0.25-2.54v-6.48h-2.65c-0.33,0-0.5-0.17-0.5-0.5v-2.29
		c0-0.33,0.17-0.5,0.5-0.5H102.89z"/>
	<path class="st1" d="M116.21,79.82v-3.68c0-0.41,0.2-0.61,0.61-0.61h2.76c0.41,0,0.61,0.2,0.61,0.61v3.68h4.89
		c0.34,0,0.5,0.17,0.5,0.5v2.29c0,0.34-0.17,0.5-0.5,0.5h-4.89v6.48c0,0.78,0.16,1.35,0.47,1.72c0.32,0.36,0.94,0.54,1.87,0.54h2.71
		c0.34,0,0.5,0.17,0.5,0.5v2.29c0,0.33-0.17,0.5-0.5,0.5h-3.38c-1.12,0-2.04-0.1-2.76-0.31c-0.73-0.2-1.31-0.53-1.74-0.98
		c-0.44-0.45-0.74-1.02-0.91-1.73c-0.17-0.71-0.25-1.55-0.25-2.54v-6.48h-2.65c-0.33,0-0.5-0.17-0.5-0.5v-2.29
		c0-0.33,0.17-0.5,0.5-0.5H116.21z"/>
	<path class="st1" d="M141.32,79.82c0.95,0,1.73,0.08,2.36,0.24c0.62,0.16,1.12,0.42,1.48,0.78c0.36,0.36,0.62,0.84,0.77,1.42
		c0.15,0.59,0.22,1.3,0.22,2.14v2.65c0,0.6-0.13,1.01-0.39,1.24c-0.26,0.23-0.66,0.35-1.2,0.35h-14.1v0.67
		c0,0.87,0.21,1.51,0.63,1.9c0.42,0.39,1.23,0.59,2.44,0.59h11.64c0.33,0,0.5,0.17,0.5,0.5v2.35c0,0.33-0.17,0.5-0.5,0.5h-12.03
		c-1.27,0-2.32-0.1-3.17-0.31c-0.85-0.2-1.53-0.53-2.04-0.99c-0.51-0.46-0.88-1.04-1.1-1.76c-0.22-0.72-0.33-1.58-0.33-2.58v-4.02
		c0-1,0.11-1.87,0.33-2.58c0.22-0.72,0.59-1.3,1.1-1.76c0.51-0.46,1.19-0.79,2.04-1c0.85-0.21,1.9-0.32,3.17-0.32H141.32z
		 M130.46,86.16h11.31c0.32,0,0.47-0.16,0.47-0.47v-1.17c0-0.58-0.12-0.99-0.36-1.23c-0.24-0.24-0.69-0.36-1.34-0.36h-7.01
		c-1.21,0-2.02,0.19-2.44,0.57c-0.42,0.38-0.63,1.02-0.63,1.91V86.16z"/>
</g>
</svg>
